<svg width="50" height="50" viewBox="0 0 50 50" fill="none" xmlns="http://www.w3.org/2000/svg">
<path d="M17.2852 35.5156H19.1602L21.6797 41.6797H21.7852L24.3047 35.5156H26.1797V44H24.7148V38.1641H24.6328L22.2773 43.9766H21.1875L18.832 38.1406H18.7617V44H17.2852V35.5156ZM28.582 46.3906C28.2832 46.3848 28.002 46.3789 27.8086 46.3555V45.1602C27.9902 45.1777 28.2422 45.1777 28.4414 45.1836C28.8047 45.1777 29.1094 45.1543 29.3672 44.4688L29.4961 44.1289L27.1758 37.6367H28.7578L30.2344 42.4414H30.3047L31.7812 37.6367H33.3633L30.8086 44.7734C30.4453 45.7871 29.7773 46.3848 28.582 46.3906Z" fill="#6D7582"/>
<path fill-rule="evenodd" clip-rule="evenodd" d="M25 27C31.0751 27 36 22.0751 36 16C36 9.92487 31.0751 5 25 5C18.9249 5 14 9.92487 14 16C14 22.0751 18.9249 27 25 27ZM24 19C22.8954 19 22 19.8954 22 21C22 22.1046 22.8954 23 24 23H26C27.1046 23 28 22.1046 28 21C28 19.8954 27.1046 19 26 19H24Z" fill="#B1B8C0"/>
</svg>
