<svg width="50" height="50" viewBox="0 0 50 50" fill="none" xmlns="http://www.w3.org/2000/svg">
<path d="M11.7852 44V35.5156H17.2227V36.793H13.3086V39.1133H16.8477V40.3906H13.3086V44H11.7852ZM20.7969 44.1289C18.8809 44.1289 17.7031 42.8516 17.7031 40.8594C17.7031 38.8906 18.8984 37.5547 20.7148 37.5547C22.2734 37.5547 23.6211 38.5332 23.6211 40.7656V41.2344H19.1797C19.2031 42.3184 19.8418 42.9629 20.8086 42.957C21.4648 42.9629 21.9043 42.6816 22.0977 42.3008H23.5625C23.293 43.4023 22.2734 44.1289 20.7969 44.1289ZM19.1855 40.2148H22.1914C22.1855 39.3477 21.5996 38.7148 20.7383 38.7148C19.8418 38.7148 19.2383 39.4062 19.1855 40.2148ZM27.6055 44.1289C25.6895 44.1289 24.5117 42.8516 24.5117 40.8594C24.5117 38.8906 25.707 37.5547 27.5234 37.5547C29.082 37.5547 30.4297 38.5332 30.4297 40.7656V41.2344H25.9883C26.0117 42.3184 26.6504 42.9629 27.6172 42.957C28.2734 42.9629 28.7129 42.6816 28.9062 42.3008H30.3711C30.1016 43.4023 29.082 44.1289 27.6055 44.1289ZM25.9941 40.2148H29C28.9941 39.3477 28.4082 38.7148 27.5469 38.7148C26.6504 38.7148 26.0469 39.4062 25.9941 40.2148ZM33.957 44.1172C32.4629 44.1113 31.332 42.916 31.332 40.8242C31.332 38.7031 32.4922 37.5547 33.9688 37.5547C35.0879 37.5547 35.5566 38.2285 35.7852 38.6797H35.8438V35.5156H37.332V44H35.8672V42.9922H35.7852C35.5449 43.4609 35.0586 44.1113 33.957 44.1172ZM32.8555 40.8125C32.8555 42.0137 33.3828 42.8867 34.3672 42.8867C35.334 42.8867 35.8789 42.0547 35.8789 40.8125C35.8789 39.5762 35.3398 38.7793 34.3672 38.7734C33.3711 38.7793 32.8555 39.6289 32.8555 40.8125Z" fill="#6D7582"/>
<rect x="18" y="6" width="15" height="19" rx="3" fill="#B1B8C0"/>
<rect x="35" y="7" width="2" height="17" rx="1" fill="#B1B8C0"/>
<rect x="14" y="7" width="2" height="17" rx="1" fill="#B1B8C0"/>
</svg>
